# xmcd
# 
# Track frame offsets:
#	150
#	16025
#	27675
#	38425
#	49875
#	62125
#	74500
#	85675
#	99650
#	110525
#	122800
#	136150
#	149550
#	162325
#	173250
#	188225
#
# Disc length: 2642 seconds
#
# Revision: 1
# Processed by: cddbd v1.4PL0 Copyright (c) Steve Scherf et al.
# Submitted via: Audio-CD-Archiv 2.10.438
#
DISCID=d90a5010
DTITLE=Dean Martin - Gold Vol. 2 CD2
DYEAR=1900
DGENRE=blues
TTITLE0=Detroit City
TTITLE1=I'm So Lonesome I Could Cry
TTITLE2=(remember Me) I'm The One who Loves You
TTITLE3=Turn To Me
TTITLE4=From The Bottom Of My Heart
TTITLE5=Little Ole Winedrinker Me
TTITLE6=Born To Lose
TTITLE7=(Open Up The Door) And Let The Good imes In
TTITLE8=Nobody's baby Again
TTITLE9=By The Time I Get To Phoenix
TTITLE10=Crying Time
TTITLE11=Room Full Of Roses
TTITLE12=That Old Time Feelin'
TTITLE13=Turn The World Around
TTITLE14=Here Comes My Baby
TTITLE15=The One I Love (Belongs To Somebody Else)
EXTD=
EXTT0=
EXTT1=
EXTT2=
EXTT3=
EXTT4=
EXTT5=
EXTT6=
EXTT7=
EXTT8=
EXTT9=
EXTT10=
EXTT11=
EXTT12=
EXTT13=
EXTT14=
EXTT15=
PLAYORDER=
